<svg xmlns="http://www.w3.org/2000/svg" fill="none" viewBox="0 0 163 38"><path fill="#000" d="M25.05 34.373q0 .928-.673 1.46c-.403.353-.94.53-1.567.53h-2.463v-.973h2.597q.47 0 .806-.265c.224-.177.314-.443.314-.752 0-.31-.09-.576-.314-.752a1.26 1.26 0 0 0-.806-.266h-3.18v4.557h-.985v-5.53h4.03c.628 0 1.165.177 1.568.53q.672.532.672 1.46M33.2 35.08c0 .797-.269 1.504-.806 2.035q-.807.796-2.016.796h-1.522q-1.21 0-2.016-.796c-.537-.53-.806-1.194-.806-2.035 0-.796.269-1.46.806-1.946.538-.487 1.21-.752 2.016-.752h1.567c.851 0 1.523.265 2.015.752.493.486.762 1.15.762 1.946m-.94.089q0-.796-.538-1.327t-1.344-.531h-1.522q-.807 0-1.344.53-.537.532-.537 1.328c0 .53.179.973.537 1.283s.806.486 1.344.486h1.567c.538 0 .985-.177 1.344-.486.313-.354.492-.752.492-1.283M43.769 32.382l-2.866 5.087c-.224.354-.404.531-.627.531-.224 0-.404-.177-.627-.53l-.806-1.416-.807 1.415c-.224.354-.403.531-.627.531s-.403-.177-.627-.53l-2.821-5.088h1.254l2.194 4.025.806-1.46-1.433-2.565h1.254l2.195 4.025 2.194-4.025zM49.547 37.912H44.71v-5.53h4.837v.973h-3.852v3.583h3.852zm-.269-2.345h-3.18v-.973h3.18zM57.562 37.912H56.13l-1.567-1.549h-2.105v-.973h2.597c.359 0 .672-.089.896-.221q.403-.266.403-.796c0-.708-.448-1.018-1.343-1.018h-3.18v4.557h-.985v-5.53h4.03c.717 0 1.3.133 1.747.442.493.354.761.885.761 1.549 0 .442-.134.84-.448 1.194-.268.31-.627.53-1.12.663zM63.698 37.912h-4.837v-5.53h4.837v.973h-3.851v3.583h3.851zm-.224-2.345h-3.18v-.973h3.18zM71.402 35.08c0 .797-.269 1.504-.806 2.035q-.807.796-2.016.796h-3.135v-5.53h3.135c.806 0 1.478.266 2.016.753.537.486.806 1.15.806 1.946m-.986.089q0-.796-.537-1.327t-1.344-.531h-2.194v3.583h2.195c.537 0 .985-.177 1.343-.487s.537-.707.537-1.238M81.881 36.275c0 .22-.045.442-.179.663-.358.62-1.03.93-2.06.93h-4.03v-5.486h4.03c.94 0 1.612.31 2.015.885.135.22.224.486.224.752 0 .442-.179.84-.582 1.15.358.31.582.663.582 1.106m-.94-2.256q0-.332-.403-.531a1.9 1.9 0 0 0-.717-.133h-3.18v3.583h3.18c.269 0 .493-.044.717-.132.268-.133.448-.31.448-.531s-.135-.398-.448-.531a1.9 1.9 0 0 0-.717-.133h-2.597v-.929h2.597c.269 0 .538-.044.717-.133q.403-.199.403-.53M89.405 32.382l-2.777 3.716v1.813h-.985v-1.858l-2.867-3.671h1.254l2.105 2.698 1.97-2.698zM94.51 37.912h-.986v-5.53h.986zm4.702 0h-.985v-2.3h-3.27v-.974h3.27v-2.256h.985zM105.437 37.912h-4.836v-5.53h4.836v.973h-3.851v3.583h3.851zm-.268-2.345h-3.18v-.973h3.18zM113.409 37.912h-1.388l-1.971-2.035-1.97 2.034h-1.389l2.732-2.742-2.732-2.787h1.344l2.015 2.035 2.016-2.035h1.343l-2.732 2.787zM119.589 33.355h-2.194v4.557h-.986v-4.557h-2.194v-.973h5.374zM125.501 37.912h-4.837v-5.53h4.837v.973h-3.852v3.583h3.852zm-.269-2.345h-3.18v-.973h3.18zM132.801 37.912h-3.135q-1.21 0-2.015-.797c-.538-.53-.806-1.194-.806-2.035 0-.796.268-1.46.806-1.946.537-.487 1.209-.752 2.015-.752h3.135v.973h-3.135q-.806 0-1.343.53-.538.532-.538 1.328c0 .53.179.973.538 1.283.358.31.806.486 1.343.486h3.135zM135.175 37.912h-.986v-5.53h.986zm4.702 0h-.985v-2.3h-3.269v-.974h3.269v-2.256h.985z"></path><path fill="#EC2027" stroke="#EC2027" stroke-miterlimit="10" d="M1 26.542V10.44h3.09l7.703 9.732 7.524-9.732h3.045v16.102H18.87V16.59q0-.664.134-1.726c-.403.797-.716 1.372-.94 1.681l-6.18 8.052h-.762L4.986 16.5A10 10 0 0 1 4 14.82c.044.663.09 1.238.09 1.724v9.954H1zM29.976 14.244c0-1.017.134-1.814.358-2.344.269-.531.672-.93 1.254-1.15.582-.222 1.388-.31 2.418-.31h12.002c1.03 0 1.837.088 2.419.31.582.22.985.574 1.254 1.15.269.53.358 1.327.358 2.344v8.494c0 1.017-.134 1.813-.358 2.344-.269.531-.672.93-1.254 1.15-.582.222-1.389.31-2.419.31H34.006c-1.03 0-1.836-.088-2.418-.31-.582-.22-.985-.575-1.254-1.15-.269-.53-.358-1.327-.358-2.344zm3.806 9.246h12.495V13.315H33.782zM58.056 26.542V10.44h2.597l11.465 9.51c.761.62 1.388 1.195 1.836 1.77q-.135-2.256-.134-2.787V10.44h3.404v16.102h-2.598L62.668 16.59q-.873-.731-1.343-1.327c.09.707.134 1.238.134 1.548s.045.663.045 1.017v8.715zM85.554 26.542V10.44h16.704v2.742H89.36v3.584h7.524v2.742H89.36v3.982h13.077v3.052zM113.947 26.542v-7.21l-8.465-8.892h5.061l5.598 6.193 5.598-6.193h4.479l-8.465 8.803v7.3z"></path><path fill="#EC2027" d="M129.935 23.048v3.76h5.508S155.596 15.129 162.851 0c0 0-13.435 14.82-32.916 23.048M145.564 21.72l7.435 5.088h8.733l-11.734-8.494z"></path><path fill="#EC2027" d="M129.89 10.22h9.001l5.509 3.98-4.926 2.788z"></path></svg>