<svg height="187" width="1013" xmlns="http://www.w3.org/2000/svg" version="1.1">
<path transform="translate(723,20)" fill="#000000" d="M0 0 C20.50650883 -0.0678459 41.0129261 -0.12305667 61.51951885 -0.15543652 C71.04210632 -0.17087385 80.56461885 -0.19190313 90.0871582 -0.22631836 C98.39164257 -0.25631701 106.69607264 -0.27559776 115.0006097 -0.28226548 C119.39359407 -0.28616009 123.78642316 -0.29524686 128.17935753 -0.31719017 C132.32355242 -0.33772109 136.4675297 -0.34380066 140.61177063 -0.33932304 C142.1237386 -0.34014088 143.6357147 -0.34600688 145.14763832 -0.35761642 C160.58015731 -0.47019352 174.40625575 1.55368032 186.3515625 12.0703125 C198.12558015 24.37349948 199.31871964 39.21968965 199.30078125 55.4296875 C199.30467923 56.91122556 199.30901612 58.39276252 199.31376648 59.8742981 C199.32118584 62.96555214 199.32096884 66.05669188 199.31567383 69.14794922 C199.30988551 73.07689892 199.32681549 77.00537623 199.3500185 80.93424797 C199.3648687 83.99035297 199.36561234 87.04634714 199.36250877 90.10248184 C199.36301636 91.54952047 199.36814616 92.99656624 199.37832069 94.44356918 C199.46986207 109.27994716 197.23996468 124.03126269 186.78125 135.34375 C177.08633626 144.35831891 165.58524226 149.1306908 152.36247253 149.12025452 C151.70891558 149.12110894 151.05535864 149.12196337 150.38199693 149.12284368 C148.20019305 149.12448592 146.01846668 149.11899776 143.83666992 149.11352539 C142.26944989 149.11324322 140.70222972 149.11340183 139.13500977 149.1139679 C134.88542978 149.11425471 130.63587804 149.10837666 126.38630462 149.10139394 C121.94335432 149.09514116 117.50040336 149.09455508 113.05744934 149.09336853 C104.64631738 149.0902609 96.23519842 149.08205515 87.82407218 149.07201904 C76.45653516 149.05874989 65.08899458 149.05335341 53.72145176 149.04751682 C35.81429143 149.03811489 17.90715855 149.01819217 0 149 C0 120.95 0 92.9 0 64 C13.53 64 27.06 64 41 64 C41 78.19 41 92.38 41 107 C79.28 106.67 117.56 106.34 157 106 C159.83969986 74.26054137 159.83969986 74.26054137 155 44 C78.275 43.505 78.275 43.505 0 43 C0 28.81 0 14.62 0 0 Z"></path>
<path transform="translate(568,26)" fill="#000000" d="M0 0 C6.99388534 5.87648468 13.47088798 12.32263356 19.91796875 18.78515625 C20.81945145 19.68568222 21.72093414 20.58620819 22.6497345 21.51402283 C24.53913315 23.40274604 26.42751416 25.2924205 28.31420898 27.18383789 C30.71097789 29.58631946 33.11223324 31.98425881 35.51484203 34.38089848 C37.8391648 36.70070577 40.15963881 39.02435539 42.48046875 41.34765625 C43.33166794 42.19683121 44.18286713 43.04600616 45.05986023 43.9209137 C45.86792618 44.73213181 46.67599213 45.54334991 47.50854492 46.37915039 C48.55917366 47.43097252 48.55917366 47.43097252 49.63102722 48.50404358 C52.85951538 51.90558784 55.91178615 55.47061275 59 59 C70.55 70.55 82.1 82.1 94 94 C94.495 44.5 94.495 44.5 95 -6 C108.2 -6 121.4 -6 135 -6 C135.09053932 9.04763447 135.1641204 24.09512802 135.20724869 39.14297104 C135.22781245 46.13105826 135.25581337 53.11896334 135.30175781 60.10693359 C135.34611468 66.85669925 135.36916985 73.60627598 135.37950897 80.35617828 C135.38687268 82.9252545 135.40125202 85.49432095 135.42292023 88.06331635 C135.45215775 91.67492109 135.45594738 95.28575599 135.45410156 98.89746094 C135.46848267 99.94835403 135.48286377 100.99924713 135.49768066 102.08198547 C135.4298946 114.4214701 131.36761203 125.1435118 122.96484375 134.19140625 C114.06426506 142.71524087 105.86324963 144.44540064 93.83203125 144.43359375 C75.82176682 142.39573508 59.90990883 123.24808187 47.79272461 110.99853516 C46.04408776 109.2313929 44.2873301 107.47263385 42.52929688 105.71484375 C41.38494075 104.56557786 40.24104358 103.41585474 39.09765625 102.265625 C38.58711197 101.7539679 38.07656769 101.24231079 37.55055237 100.71514893 C34.79374342 97.92279739 32.16168841 95.06151549 29.59741211 92.09082031 C26.02148145 87.96771636 22.22577384 84.11473971 18.34375 80.28125 C17.63778687 79.57907349 16.93182373 78.87689697 16.20446777 78.15344238 C13.97208642 75.93315397 11.73647889 73.71616045 9.5 71.5 C6.54909622 68.57590521 3.60166797 65.64836943 0.65625 62.71875 C-0.00749634 62.063302 -0.67124268 61.407854 -1.35510254 60.73254395 C-5.16119473 56.9461712 -8.77228496 53.05809101 -12.24963379 48.96691895 C-14.39928688 46.55131394 -16.71350093 44.28649907 -19 42 C-19.33 75.33 -19.66 108.66 -20 143 C-33.53 143 -47.06 143 -61 143 C-61.09056805 127.83925635 -61.16413699 112.6786361 -61.20724869 97.5176897 C-61.22780528 90.47694471 -61.25579222 83.43638071 -61.30175781 76.39575195 C-61.34614168 69.59411099 -61.36917517 62.79265771 -61.37950897 55.99088097 C-61.38686815 53.40309386 -61.40123848 50.81531637 -61.42292023 48.22760963 C-61.68854322 15.1953276 -61.68854322 15.1953276 -49.1875 2.1015625 C-35.09866109 -11.36236823 -15.26210764 -10.79269299 0 0 Z"></path>
<path transform="translate(14,20)" fill="#000000" d="M0 0 C14.52 0 29.04 0 44 0 C44.33 17.16 44.66 34.32 45 52 C48.3 49.03 51.6 46.06 55 43 C58.35153506 40.68622303 61.66068964 38.49605856 65.125 36.375 C66.06730469 35.78654297 67.00960937 35.19808594 67.98046875 34.59179688 C69.97164772 33.34960552 71.96551007 32.11170606 73.96191406 30.87792969 C77.99542334 28.38469975 82.01491552 25.86933287 86.03466797 23.35400391 C87.90470919 22.18480474 89.77596455 21.01754315 91.64892578 19.85302734 C92.54853027 19.29309082 93.44813477 18.7331543 94.375 18.15625 C95.39062012 17.55441895 96.40624023 16.95258789 97.45263672 16.33251953 C100.25557185 14.59316458 102.67749043 12.59543519 105.17626953 10.44482422 C122.43289877 -3.49767512 141.03161465 -1.67550342 162.05914307 -0.96130371 C166.79894658 -0.81603261 171.53984492 -0.75371932 176.28125 -0.68359375 C185.52364756 -0.53508109 194.76127347 -0.29735228 204 0 C201.2526468 2.811886 198.69693545 4.97841509 195.31640625 6.99609375 C194.39988281 7.5478125 193.48335937 8.09953125 192.5390625 8.66796875 C191.06566406 9.54388672 191.06566406 9.54388672 189.5625 10.4375 C187.46960424 11.69587003 185.37716562 12.95500067 183.28515625 14.21484375 C182.2295752 14.84890137 181.17399414 15.48295898 180.08642578 16.13623047 C175.53350435 18.88555828 171.01583136 21.6903128 166.5 24.5 C159.19024701 29.03930477 151.85469762 33.53389903 144.5 38 C134.38085093 44.14529448 124.30856789 50.36370456 114.24902344 56.60595703 C111.16991567 58.51452253 108.08563407 60.41450206 105 62.3125 C104.01515625 62.91964844 103.0303125 63.52679688 102.015625 64.15234375 C99.80224467 65.50846926 97.58397444 66.85395648 95.359375 68.19140625 C94.75609375 68.55645264 94.1528125 68.92149902 93.53125 69.29760742 C91.85106297 70.31387186 90.16781381 71.32506874 88.484375 72.3359375 C85.91323874 73.76164729 85.91323874 73.76164729 85 76 C85.68320313 76.24621094 86.36640625 76.49242188 87.0703125 76.74609375 C90.53165349 78.2275477 93.67440849 80.09853871 96.875 82.0625 C98.22649101 82.88293027 99.57805542 83.70323966 100.9296875 84.5234375 C101.61256836 84.93948242 102.29544922 85.35552734 102.99902344 85.78417969 C105.40492534 87.24603809 107.82053609 88.69113675 110.23754883 90.13452148 C119.06564152 95.4088758 127.84284215 100.76685952 136.625 106.1171875 C143.47638352 110.29104348 150.33091162 114.4597013 157.1875 118.625 C157.78092194 118.98561523 158.37434387 119.34623047 158.98574829 119.71777344 C165.76475241 123.83659175 172.5539732 127.93725649 179.36547852 132.00219727 C186.04296454 135.98764106 192.69390384 140.0045521 199.25 144.1875 C199.84151855 144.56261719 200.43303711 144.93773437 201.04248047 145.32421875 C202.38050046 146.1876157 203.69362509 147.08943073 205 148 C205 148.33 205 148.66 205 149 C194.79356156 149.39921984 184.58906455 149.69854008 174.3763237 149.88080692 C169.63018181 149.96843085 164.88948831 150.08655002 160.14648438 150.2824707 C135.0256639 151.29214395 118.06631504 149.5567176 97.79522705 134.0854187 C93.94991334 131.21656799 89.89704629 128.85031856 85.72265625 126.5 C84.41322416 125.73300581 83.10522113 124.96356543 81.79882812 124.19140625 C79.90527128 123.07976099 78.01077301 121.96980269 76.11450195 120.86279297 C53.85006917 107.85006917 53.85006917 107.85006917 45 99 C44.67 115.5 44.34 132 44 149 C29.48 149 14.96 149 0 149 C0 99.83 0 50.66 0 0 Z"></path>
<path transform="translate(229,20)" fill="#000000" d="M0 0 C13.86 0 27.72 0 42 0 C42 17.49 42 34.98 42 53 C79.29 53 116.58 53 155 53 C155 35.51 155 18.02 155 0 C168.53 0 182.06 0 196 0 C196 49.17 196 98.34 196 149 C182.14 149 168.28 149 154 149 C154 131.18 154 113.36 154 95 C117.04 95 80.08 95 42 95 C42 112.82 42 130.64 42 149 C28.14 149 14.28 149 0 149 C0 99.83 0 50.66 0 0 Z"></path>
<path transform="translate(445,20)" fill="#000000" d="M0 0 C13.86 0 27.72 0 42 0 C42 49.17 42 98.34 42 149 C28.14 149 14.28 149 0 149 C0 99.83 0 50.66 0 0 Z"></path>
<path transform="translate(991.171875,22.25390625)" fill="#000000" d="M0 0 C7.11382064 4.90746649 11.12956585 11.253298 12.828125 19.74609375 C13.50898231 26.96318126 12.07784926 33.49959725 7.94140625 39.46875 C2.27997335 46.17749859 -2.7200539 50.15088912 -11.53515625 51.11328125 C-21.70523443 51.48469119 -29.12066866 49.34281438 -36.66796875 42.4609375 C-42.131119 36.23152721 -43.53112244 29.01026661 -43.453125 20.95703125 C-42.90284901 14.67471366 -40.79881087 9.66504375 -36.734375 4.87109375 C-35.88875 4.16984375 -35.043125 3.46859375 -34.171875 2.74609375 C-33.45 2.04484375 -32.728125 1.34359375 -31.984375 0.62109375 C-22.05092561 -6.00120584 -10.20501584 -5.89174476 0 0 Z M-33.671875 9.37109375 C-37.19158622 14.67065895 -38.5210999 20.68810038 -37.9765625 27.015625 C-36.62436888 33.44469103 -33.16984103 38.62282917 -27.99609375 42.63671875 C-22.90463865 45.73302121 -17.46479616 47.31929189 -11.546875 46.24609375 C-3.95867821 44.0205802 0.97541492 40.48268013 4.91796875 33.61328125 C7.59750088 28.11621534 7.7119899 22.21962651 6.21484375 16.3359375 C3.47701637 9.30442488 -1.36990289 4.60663329 -8.109375 1.30859375 C-18.12638725 -0.53126564 -26.81022233 1.25731468 -33.671875 9.37109375 Z"></path>
<path transform="translate(985.625,32.625)" fill="#000000" d="M0 0 C1.93638502 3.34466503 1.84256415 5.56769195 1.375 9.375 C0.818125 10.2 0.26125 11.025 -0.3125 11.875 C-0.9621875 13.1125 -0.9621875 13.1125 -1.625 14.375 C-0.41771391 17.88702512 -0.41771391 17.88702512 1.375 21.375 C1.77264263 23.36321313 2.12955166 25.36232362 2.375 27.375 C0.395 27.375 -1.585 27.375 -3.625 27.375 C-4.615 23.745 -5.605 20.115 -6.625 16.375 C-8.605 16.045 -10.585 15.715 -12.625 15.375 C-12.625 19.335 -12.625 23.295 -12.625 27.375 C-14.605 27.375 -16.585 27.375 -18.625 27.375 C-18.625 17.805 -18.625 8.235 -18.625 -1.625 C-12.15077105 -2.70403816 -5.79476517 -3.58723558 0 0 Z M-11.625 1.375 C-12.85767348 2.38336062 -12.85767348 2.38336062 -12.72265625 4.44140625 C-12.71105469 5.26511719 -12.69945312 6.08882812 -12.6875 6.9375 C-12.67847656 7.76378906 -12.66945313 8.59007812 -12.66015625 9.44140625 C-12.64855469 10.07949219 -12.63695312 10.71757813 -12.625 11.375 C-8.28315798 11.19035634 -8.28315798 11.19035634 -4.625 9.375 C-4.20782721 6.95962162 -4.20782721 6.95962162 -4.625 4.375 C-6.35538072 2.47298258 -6.35538072 2.47298258 -8.625 1.375 C-9.615 1.375 -10.605 1.375 -11.625 1.375 Z"></path>
</svg>
